<?xml version="1.0" encoding="utf-8"?>
<!-- Generator: Adobe Illustrator 16.0.0, SVG Export Plug-In . SVG Version: 6.00 Build 0)  -->
<!DOCTYPE svg PUBLIC "-//W3C//DTD SVG 1.1//EN" "http://www.w3.org/Graphics/SVG/1.1/DTD/svg11.dtd">
<svg version="1.1" xmlns="http://www.w3.org/2000/svg" xmlns:xlink="http://www.w3.org/1999/xlink" x="0px" y="0px" width="40px"
	 height="40px" viewBox="0 0 40 40" enable-background="new 0 0 40 40" xml:space="preserve">
<g id="Layer_2">
</g>
<g id="Layer_1">
	<g>
		<path d="M27.711,6.733c-0.775-1.161-2.365-1.473-3.521-0.693l-10.248,6.883L28.823,8.39L27.711,6.733z"/>
		<path d="M36.032,13.381l-0.63-2.284c-0.326-1.182-1.56-1.885-2.741-1.557L18.75,13.37L36.032,13.381z"/>
		<path d="M17.603,21.075c0,0.396,0.147,0.697,0.442,0.9c0.296,0.203,0.746,0.387,1.351,0.553v-2.882
			c-0.564,0.125-1.004,0.291-1.32,0.497C17.76,20.349,17.603,20.659,17.603,21.075z"/>
		<path d="M37.146,15.209l-34.28-0.01c-0.558-0.002-1.013,0.455-1.013,1.007L1.845,31.37c0,0.555,0.45,1.009,1.007,1.009
			l34.287,0.012c0.555,0,1.012-0.453,1.012-1.006l0.006-15.166C38.154,15.664,37.701,15.211,37.146,15.209z M24.751,27.739
			c-0.359,0.498-0.889,0.906-1.587,1.223s-1.528,0.504-2.489,0.564v0.873c0,0.297-0.038,0.512-0.115,0.648
			c-0.078,0.135-0.247,0.203-0.509,0.203c-0.242,0-0.412-0.057-0.509-0.166c-0.098-0.111-0.146-0.281-0.146-0.512v-1.031
			c-0.786-0.066-1.473-0.203-2.061-0.414s-1.078-0.473-1.471-0.787c-0.394-0.313-0.684-0.639-0.872-0.979
			c-0.188-0.338-0.282-0.67-0.282-0.996c0-0.242,0.126-0.459,0.378-0.652c0.252-0.191,0.566-0.289,0.942-0.289
			c0.303,0,0.558,0.053,0.766,0.158s0.353,0.254,0.434,0.443c0.181,0.412,0.339,0.727,0.474,0.945
			c0.134,0.219,0.337,0.418,0.609,0.598c0.271,0.182,0.633,0.318,1.083,0.414v-3.498c-0.9-0.186-1.652-0.393-2.257-0.621
			s-1.095-0.553-1.471-0.975c-0.377-0.422-0.564-0.965-0.564-1.626c0-0.863,0.367-1.57,1.104-2.122
			c0.735-0.552,1.798-0.873,3.188-0.963v-0.798c0-0.421,0.212-0.632,0.635-0.632c0.43,0,0.645,0.206,0.645,0.617v0.813
			c0.719,0.055,1.336,0.166,1.85,0.331s0.962,0.417,1.345,0.752c0.302,0.256,0.536,0.519,0.7,0.79s0.247,0.52,0.247,0.745
			c0,0.251-0.122,0.468-0.368,0.651c-0.245,0.184-0.542,0.273-0.892,0.273c-0.658,0-1.085-0.266-1.279-0.797
			c-0.222-0.626-0.756-1.043-1.603-1.249v3.129c0.834,0.172,1.496,0.326,1.99,0.467s0.936,0.344,1.325,0.609
			c0.416,0.277,0.737,0.605,0.962,0.99c0.225,0.383,0.338,0.805,0.338,1.26C25.29,26.704,25.11,27.239,24.751,27.739z"/>
		<path d="M22.413,25.514c0,0.364-0.164,0.685-0.487,0.959c-0.069,0.059-0.161,0.103-0.247,0.15
			c-0.132,0.075-0.276,0.141-0.438,0.195c-0.067,0.023-0.128,0.052-0.199,0.072c-0.12,0.034-0.238,0.069-0.367,0.099v1.07
			c0.679-0.102,1.203-0.305,1.572-0.609c0.369-0.307,0.555-0.664,0.555-1.07c0-0.367-0.136-0.661-0.391-0.888
			C22.411,25.5,22.413,25.506,22.413,25.514z"/>
		<path d="M22.412,25.516c0,0.363-0.164,0.683-0.487,0.957c-0.069,0.059-0.161,0.103-0.246,0.15c0.086-0.048,0.178-0.092,0.247-0.15
			c0.323-0.274,0.487-0.595,0.487-0.959c0-0.008-0.002-0.014-0.002-0.021c-0.001-0.001-0.001-0.001-0.002-0.001
			C22.41,25.5,22.412,25.507,22.412,25.516z"/>
		<path d="M21.241,26.818c-0.068,0.023-0.128,0.052-0.2,0.072v-2.03c-0.118-0.033-0.236-0.066-0.366-0.098v2.227
			c0.129-0.029,0.247-0.064,0.367-0.099C21.113,26.87,21.174,26.842,21.241,26.818z"/>
		<path d="M22.412,25.516c0-0.009-0.002-0.016-0.003-0.024c-0.047-0.042-0.091-0.086-0.146-0.123
			c-0.293-0.194-0.704-0.362-1.222-0.508v2.03c0.072-0.021,0.132-0.049,0.2-0.072c0.161-0.055,0.306-0.12,0.438-0.195
			c0.085-0.048,0.177-0.092,0.246-0.15C22.248,26.198,22.412,25.879,22.412,25.516z"/>
	</g>
</g>
</svg>
