<?xml version="1.0" encoding="utf-8"?>
<!-- Generator: Adobe Illustrator 16.0.0, SVG Export Plug-In . SVG Version: 6.00 Build 0)  -->
<!DOCTYPE svg PUBLIC "-//W3C//DTD SVG 1.1//EN" "http://www.w3.org/Graphics/SVG/1.1/DTD/svg11.dtd">
<svg version="1.1" id="Layer_1" xmlns="http://www.w3.org/2000/svg" xmlns:xlink="http://www.w3.org/1999/xlink" x="0px" y="0px"
	 width="40px" height="40px" viewBox="0 0 40 40" enable-background="new 0 0 40 40" xml:space="preserve">
<g>
	<path d="M23.98,30.17l-4.141,0.727c-0.056,0.009-0.111,0.014-0.167,0.014c-0.256,0-0.502-0.1-0.687-0.284
		c-0.224-0.224-0.325-0.543-0.269-0.854l0.727-4.131c0.063-0.355,0.878-1.117,1.008-1.246l8.473-8.458c0-5.534,0-10.166,0-10.489
		c0-0.835-0.775-0.726-0.775-0.726H10.011H6.066c0,0-0.643,0.054-0.643,0.867c0,0.705,0,23.29,0,28.717
		c0,1.367,1.048,1.299,1.048,1.299h21.65c0,0,0.804,0,0.804-0.91c0-1.545,0-5.097,0-9.208l-3.69,3.683
		C25.099,29.307,24.336,30.107,23.98,30.17z M10.668,9.891H23.68c0.494,0,0.897,0.401,0.897,0.897s-0.403,0.898-0.897,0.898H10.668
		c-0.496,0-0.896-0.402-0.896-0.898S10.173,9.891,10.668,9.891z M10.668,14.677h13.009c0.494,0,0.897,0.402,0.897,0.897
		c0,0.496-0.403,0.897-0.897,0.897H10.668c-0.496,0-0.896-0.401-0.896-0.897C9.772,15.079,10.173,14.677,10.668,14.677z
		 M10.668,21.546c-0.496,0-0.896-0.402-0.896-0.897c0-0.496,0.401-0.897,0.896-0.897h7.897c0.496,0,0.897,0.401,0.897,0.897
		c0,0.495-0.401,0.897-0.897,0.897H10.668z"/>
	<path fill="#FFFFFF" d="M36.272,16.809l-1.566,1.563l-3.427-3.42l1.568-1.564c0.201-0.201,0.465-0.303,0.732-0.303
		c0.266,0,0.531,0.102,0.734,0.306l1.958,1.956C36.678,15.75,36.678,16.406,36.272,16.809z"/>
	<path d="M34.314,13.391c-0.203-0.204-0.469-0.305-0.733-0.305c-0.268,0-0.532,0.102-0.731,0.303l-1.57,1.564l3.429,3.42
		l1.565-1.563c0.405-0.403,0.405-1.06,0-1.463L34.314,13.391z"/>
	<path d="M33.972,19.105l-3.427-3.421l-1.62,1.617c0,2.254,0,4.604,0,6.842L33.972,19.105z"/>
	<path d="M24.531,28.53l4.394-4.387c0-2.237,0-4.588,0-6.842l-7.819,7.806L24.531,28.53z"/>
	<polygon points="19.632,29.99 23.791,29.26 20.363,25.842 	"/>
</g>
</svg>
