<?xml version="1.0" encoding="utf-8"?>
<!-- Generator: Adobe Illustrator 16.0.0, SVG Export Plug-In . SVG Version: 6.00 Build 0)  -->
<!DOCTYPE svg PUBLIC "-//W3C//DTD SVG 1.1//EN" "http://www.w3.org/Graphics/SVG/1.1/DTD/svg11.dtd">
<svg version="1.1" id="Layer_1" xmlns="http://www.w3.org/2000/svg" xmlns:xlink="http://www.w3.org/1999/xlink" x="0px" y="0px"
	 width="40px" height="40px" viewBox="0 0 40 40" enable-background="new 0 0 40 40" xml:space="preserve">
<g>
	<path d="M4.193,31.355h15.712c-0.136-3.55-1.452-6.283-7.161-6.468V23.2h0.371c0.333,0,0.604-0.271,0.604-0.603v-0.559
		c0-0.33-0.271-0.603-0.604-0.603h-2.132c-0.33,0-0.602,0.272-0.602,0.603v0.559c0,0.331,0.272,0.603,0.602,0.603h0.37v1.688
		C5.973,25.184,4.331,27.806,4.193,31.355z"/>
	<path d="M20.394,33.025H3.521c-0.992,0.27-1.727,1.173-1.727,2.251H22.12C22.12,34.198,21.387,33.295,20.394,33.025z"/>
	<path d="M38.631,11.757l-3.32-5.169c-0.591-0.932-1.353-0.222-1.359-0.225l-3.879,1.463c-0.688,0.391-1.019,0.303-2.497,0.107
		c-1.977-0.263-8.33-1.109-8.33-1.109c-1.36-0.313-2.774-0.11-3.987,0.584l-9.749,6.406c-0.908,0.713-1.816,1.383-1.383,2.81
		c0,0,0.908,1.988,3.243,0.902c0,0,6.146-3.929,9.052-4.764c1.271-0.366,5.46,0.265,7.102,1.042c0.526,0.247,0.491,0.759-0.075,1.02
		c-1.314,0.607-5.798-0.213-6.631,0.437c-0.658,0.514-0.983,1.378-0.58,2.147c0.193,0.363,0.541,0.651,1.106,0.796
		c0,0,10.859,1.624,14.589-1.111c2.829-2.073,6.315-4.014,6.315-4.014C38.73,12.769,38.901,12.178,38.631,11.757z"/>
</g>
</svg>
