<?xml version="1.0" encoding="utf-8"?>
<!-- Generator: Adobe Illustrator 16.0.0, SVG Export Plug-In . SVG Version: 6.00 Build 0)  -->
<!DOCTYPE svg PUBLIC "-//W3C//DTD SVG 1.1//EN" "http://www.w3.org/Graphics/SVG/1.1/DTD/svg11.dtd">
<svg version="1.1" id="Layer_1" xmlns="http://www.w3.org/2000/svg" xmlns:xlink="http://www.w3.org/1999/xlink" x="0px" y="0px"
	 width="40px" height="40px" viewBox="0 0 40 40" enable-background="new 0 0 40 40" xml:space="preserve">
<g>
	<path d="M32.943,5.899H7.057c-1.754,0-3.236,1.483-3.236,3.236v17.796c0,1.754,1.482,3.234,3.236,3.234h4.313v5.395
		c0,0.223,0.138,0.424,0.345,0.502c0.063,0.023,0.129,0.037,0.195,0.037c0.15,0,0.295-0.063,0.4-0.176l5.232-5.758h15.4
		c1.754,0,3.236-1.48,3.236-3.234V9.135C36.18,7.382,34.697,5.899,32.943,5.899z M20,26.92c-1.09,0-1.974-0.885-1.974-1.975
		s0.884-1.973,1.974-1.973c1.091,0,1.974,0.883,1.974,1.973S21.092,26.92,20,26.92z M22.045,13.113l-0.611,5.245
		c-0.064,0.624-0.207,1.103-0.424,1.436c-0.219,0.334-0.579,0.5-1.08,0.5c-0.511,0-0.866-0.161-1.065-0.483
		c-0.197-0.323-0.341-0.814-0.425-1.474l-0.455-5.096c-0.084-0.993-0.127-1.705-0.127-2.138c0-0.588,0.205-1.048,0.617-1.377
		c0.411-0.33,0.953-0.495,1.625-0.495c0.814,0,1.359,0.211,1.632,0.633c0.273,0.422,0.41,1.03,0.41,1.825
		C22.143,12.155,22.111,12.631,22.045,13.113z"/>
</g>
</svg>
