<?xml version="1.0" encoding="utf-8"?>
<!-- Generator: Adobe Illustrator 16.0.0, SVG Export Plug-In . SVG Version: 6.00 Build 0)  -->
<!DOCTYPE svg PUBLIC "-//W3C//DTD SVG 1.1//EN" "http://www.w3.org/Graphics/SVG/1.1/DTD/svg11.dtd">
<svg version="1.1" id="Layer_1" xmlns="http://www.w3.org/2000/svg" xmlns:xlink="http://www.w3.org/1999/xlink" x="0px" y="0px"
	 width="40px" height="40px" viewBox="0 0 40 40" enable-background="new 0 0 40 40" xml:space="preserve">
<g>
	<path d="M28.793,24.104c-0.174-0.304-0.361-0.622-0.568-0.961c-0.994-1.429-2.695-2.443-5.254-2.443l-10.243-0.004
		c-5.051,0-6.946,3.544-6.946,7.882v6.643l17.458-0.005c-0.326-0.908-0.514-1.883-0.514-2.904
		C22.727,28.445,25.281,25.18,28.793,24.104z"/>
	<path d="M17.651,18.284c3.371,0,6.091-2.681,6.091-6.064c0-3.347-2.721-6.048-6.091-6.048c-3.345,0-6.065,2.701-6.065,6.048
		C11.586,15.604,14.306,18.284,17.651,18.284z"/>
	<path d="M31.309,25.621c-0.584,0-1.148,0.082-1.691,0.223c-2.873,0.751-4.998,3.357-4.998,6.468c0,0.984,0.219,1.917,0.6,2.759
		C26.271,37.387,28.6,39,31.309,39C35.004,39,38,36.006,38,32.312C38,28.615,35.004,25.621,31.309,25.621z M35.063,33.274h-2.818
		v2.791h-1.875v-2.791h-2.813v-1.926h2.813v-2.791h1.875v2.791h2.818V33.274z"/>
</g>
</svg>
