<?xml version="1.0" encoding="utf-8"?>
<!-- Generator: Adobe Illustrator 16.0.0, SVG Export Plug-In . SVG Version: 6.00 Build 0)  -->
<!DOCTYPE svg PUBLIC "-//W3C//DTD SVG 1.1//EN" "http://www.w3.org/Graphics/SVG/1.1/DTD/svg11.dtd">
<svg version="1.1" id="Layer_1" xmlns="http://www.w3.org/2000/svg" xmlns:xlink="http://www.w3.org/1999/xlink" x="0px" y="0px"
	 width="9px" height="19px" viewBox="4.5 4.501 9 9" enable-background="new 4.5 4.501 9 9" xml:space="preserve">
<g id="Layer_10">
	<path fill="#E5F3FF" d="M12.031,12.758c0,0.151-0.125,0.276-0.277,0.276H5.262c-0.153,0-0.278-0.125-0.278-0.276v-6.48
		c0-0.153,0.125-0.277,0.278-0.277h6.492c0.152,0,0.277,0.124,0.277,0.277V12.758z"/>
</g>
<g id="Layer_7">
	<g>
		<polygon fill="#7B9FBD" points="11.5,12.501 5.5,12.501 5.5,6.501 7.187,6.501 7.187,5.501 4.5,5.501 4.5,13.501 12.5,13.501 
			12.5,10.813 11.5,10.813 		"/>
	</g>
</g>
<g id="Layer_8">
	<g>
		<g>
			<path fill="#4F7FA6" d="M8.688,10.007l3.66-3.539l0.004,2.791L13.5,9.261v-4.76H8.663L8.659,5.644l2.885-0.004L7.867,9.192
				C7.867,9.192,8.262,9.581,8.688,10.007z"/>
		</g>
	</g>
</g>
</svg>
