<svg xmlns="http://www.w3.org/2000/svg" width="29.21" height="9.29" viewBox="0 0 29.21 9.29"><defs><style>.a{fill:#fff;}</style></defs><path class="a" d="M8.65 4.68a1 1 0 0 1 .64-.92v-2a1.76 1.76 0 0 0-1.76-1.76h-5.77a1.76 1.76 0 0 0-1.76 1.76v5.77a1.76 1.76 0 0 0 1.76 1.76h5.77a1.76 1.76 0 0 0 1.76-1.76v-1.94a1 1 0 0 1-.64-.92m-4 1.92c-.88 0-1.58-.08-1.58-1.16v-.2h.93v.13c0 .42.22.45.57.45s.58 0 .58-.46c0-.26 0-.35-.58-.35h-.2v-.73h.24c.49 0 .53-.05.53-.31s0-.42-.53-.42-.54 0-.54.44v.07h-1v-.13c0-1.08.57-1.17 1.54-1.17.61 0 1.44 0 1.44 1 0 .42-.12.79-.58.85.49 0 .63.37.63.81 0 1-.64 1.12-1.49 1.12"/><path class="a" d="M18.62 4.68a1 1 0 0 1 .63-.91v-2a1.76 1.76 0 0 0-1.76-1.77h-5.77a1.76 1.76 0 0 0-1.72 1.76v2a1 1 0 0 1 .64.92 1 1 0 0 1-.64.92v1.93a1.76 1.76 0 0 0 1.76 1.76h5.77a1.76 1.76 0 0 0 1.76-1.76v-1.94a1 1 0 0 1-.63-.91m-3.1 1.89h-1v-2.89l-1 .89-.56-.65 1.38-1.14h1.18zM27.45 0h-5.78a1.76 1.76 0 0 0-1.76 1.76v2a1 1 0 0 1 .64.92 1 1 0 0 1-.64.92v1.93a1.76 1.76 0 0 0 1.76 1.76h5.77a1.76 1.76 0 0 0 1.76-1.76v-5.77a1.76 1.76 0 0 0-1.75-1.76m-1.89 6.57h-1v-2.89l-1 .89-.56-.65 1.38-1.14h1.18z"/></svg>